<svg width="128" height="128" viewBox="0 0 128 128" fill="none" xmlns="http://www.w3.org/2000/svg">
<path d="M104 4C115.046 4 124 12.9543 124 24V124H24C12.9543 124 4 115.046 4 104V4H104Z" fill="#007A55" stroke="#00D292" stroke-width="8"/>
<path d="M66.875 65.7233C69.7582 65.7234 72.1044 66.445 73.7227 68.0632C75.3408 69.6815 76.0625 72.0276 76.0625 74.9108V84.4636C76.0625 87.3468 75.3408 89.6929 73.7227 91.3112C72.1044 92.9295 69.7582 93.651 66.875 93.6511H61.4902V103.399H51.3506V65.7233H66.875ZM95.8125 65.7233C98.6958 65.7234 101.042 66.4449 102.66 68.0632C104.278 69.6815 105 72.0275 105 74.9108V84.4636C105 87.3469 104.278 89.6929 102.66 91.3112C101.042 92.9295 98.6958 93.651 95.8125 93.6511H90.4277V103.399H80.2881V65.7233H95.8125ZM37.7441 65.7233C40.6274 65.7234 42.9735 66.4449 44.5918 68.0632C46.21 69.6815 46.9316 72.0275 46.9316 74.9108V93.6511H32.1875C29.3117 93.651 26.9697 92.9535 25.3506 91.3825C23.7259 89.8061 23 87.5166 23 84.7067C23.0001 81.8969 23.7258 79.6073 25.3506 78.031C26.9697 76.4601 29.3118 75.7634 32.1875 75.7634H36.793V74.7897H25.875V68.7546L26.2793 68.4548L29.6904 65.9206L29.9561 65.7233H37.7441ZM90.4277 84.5847H94.8613V74.7897H90.4277V84.5847ZM61.4902 84.5847H65.9229V74.7897H61.4902V84.5847ZM33.1387 84.5847H36.793V83.904H33.1387V84.5847ZM90.4336 24.6013C93.317 24.6013 95.6639 25.3228 97.2822 26.9411C98.9004 28.5594 99.622 30.9056 99.6221 33.7888V43.3415C99.6221 46.2247 98.9003 48.5709 97.2822 50.1892C95.6639 51.8075 93.317 52.529 90.4336 52.529H85.0498V62.2771H74.9102V24.6013H90.4336ZM85.0498 43.4626H89.4824V33.6677H85.0498V43.4626ZM44.3975 33.6677H33.5811C33.5801 33.6896 33.5781 33.7136 33.5781 33.7399C33.5781 33.9319 33.5908 34.0795 33.6104 34.1882C33.6173 34.2266 33.6259 34.2576 33.6328 34.2829L38.4893 35.0925H38.4902C40.7248 35.4591 42.5271 36.3111 43.7637 37.7409C45.0025 39.1733 45.5674 41.0625 45.5674 43.2927C45.5674 46.1909 44.8465 48.5488 43.2295 50.1755C41.6114 51.8032 39.2638 52.529 36.3789 52.529H27.6172L27.3516 52.3317L23.9395 49.7976L23.5361 49.4978V43.4626H35.5225C35.5234 43.4406 35.5254 43.4166 35.5254 43.3903C35.5254 43.2558 35.5145 43.1593 35.501 43.0944C35.5004 43.0917 35.4986 43.0892 35.498 43.0866L30.6592 42.281L30.6553 42.28C28.3995 41.8953 26.5855 41.0115 25.3438 39.5388C24.1021 38.0661 23.5361 36.1277 23.5361 33.8376C23.5362 30.9396 24.2571 28.5824 25.874 26.9558C27.4921 25.3281 29.8388 24.6013 32.7236 24.6013H40.3164L40.582 24.7985L43.9941 27.3327L44.3975 27.6325V33.6677ZM71.335 33.6677H59.0537V43.4626H71.335V49.4978L70.9316 49.7976L67.5195 52.3317L67.2549 52.529H58.1025C55.2191 52.529 52.8722 51.8075 51.2539 50.1892C49.6358 48.5709 48.9141 46.2247 48.9141 43.3415V33.7888C48.9141 30.9056 49.6358 28.5594 51.2539 26.9411C52.8722 25.3228 55.2191 24.6013 58.1025 24.6013H67.2549L67.5195 24.7985L70.9316 27.3327L71.335 27.6325V33.6677Z" fill="#00D292" stroke="#005138" stroke-width="2"/>
</svg>
