<svg width="128" height="128" viewBox="0 0 128 128" fill="none" xmlns="http://www.w3.org/2000/svg">
<path d="M24 4H104C115.046 4 124 12.9543 124 24V104C124 115.046 115.046 124 104 124H24C12.9543 124 4 115.046 4 104V24C4 12.9543 12.9543 4 24 4Z" fill="black" stroke="#00D292" stroke-width="8"/>
<path d="M19.6031 47.1195V42.0204H32.2138C32.7987 42.0204 33.0911 41.6183 33.0911 40.8141C33.0911 39.9734 32.817 39.4982 32.2687 39.3886L26.6761 38.4565C21.9608 37.6523 19.6031 34.856 19.6031 30.0676C19.6031 23.8902 22.6736 20.8015 28.8144 20.8015H36.984L40.822 23.6526V28.7517H29.5272C28.9424 28.7517 28.6499 29.1538 28.6499 29.9579C28.6499 31.018 28.9424 31.5845 29.5272 31.6576L35.1198 32.5897C39.7985 33.3573 42.1379 36.0622 42.1379 40.7045C42.1379 46.8819 39.0675 49.9706 32.9266 49.9706H23.4412L19.6031 47.1195Z" fill="white"/>
<path d="M48.1537 40.7593V30.0128C48.1537 23.8719 51.2242 20.8015 57.365 20.8015H67.2891L71.1271 23.6526V28.7517H58.023C57.5478 28.7517 57.3102 28.9893 57.3102 29.4645V41.3076C57.3102 41.7828 57.5478 42.0204 58.023 42.0204H71.1271V47.1195L67.2891 49.9706H57.365C51.2242 49.9706 48.1537 46.9002 48.1537 40.7593Z" fill="white"/>
<path d="M77.3991 60.9364V20.8015H93.7382C99.8791 20.8015 102.95 23.8719 102.95 30.0128V40.7593C102.95 46.9002 99.8791 49.9706 93.7382 49.9706H86.5556V60.9364H77.3991ZM86.5556 42.0204H93.0803C93.5554 42.0204 93.793 41.7828 93.793 41.3076V29.4645C93.793 28.9893 93.5554 28.7517 93.0803 28.7517H86.5556V42.0204Z" fill="white"/>
<path d="M28.2113 96.2327C22.0704 96.2327 19 93.2537 19 87.2956C19 81.3375 22.0704 78.3584 28.2113 78.3584H34.5167V75.7266C34.5167 75.2514 34.2791 75.0138 33.8039 75.0138H22.2349V69.9147L26.073 67.0636H34.4618C40.6027 67.0636 43.6731 70.134 43.6731 76.2749V96.2327H28.2113ZM28.1565 87.5697C28.1565 88.0449 28.3941 88.2825 28.8693 88.2825H34.5167V85.2669H28.8693C28.3941 85.2669 28.1565 85.5045 28.1565 85.9797V87.5697Z" fill="white"/>
<path d="M50.8947 107.199V67.0636H67.2339C73.3747 67.0636 76.4452 70.134 76.4452 76.2749V87.0214C76.4452 93.1623 73.3747 96.2327 67.2339 96.2327H60.0512V107.199H50.8947ZM60.0512 88.2825H66.5759C67.0511 88.2825 67.2887 88.0449 67.2887 87.5697V75.7266C67.2887 75.2514 67.0511 75.0138 66.5759 75.0138H60.0512V88.2825Z" fill="white"/>
<path d="M83.4496 107.199V67.0636H99.7887C105.93 67.0636 109 70.134 109 76.2749V87.0214C109 93.1623 105.93 96.2327 99.7887 96.2327H92.6061V107.199H83.4496ZM92.6061 88.2825H99.1307C99.6059 88.2825 99.8435 88.0449 99.8435 87.5697V75.7266C99.8435 75.2514 99.6059 75.0138 99.1307 75.0138H92.6061V88.2825Z" fill="white"/>
</svg>
