<svg width="130" height="130" viewBox="0 0 130 130" fill="none" xmlns="http://www.w3.org/2000/svg">
<g filter="url(#filter0_d_2003_13)">
<path d="M0.5 18.7857C0.5 8.68679 8.68679 0.5 18.7857 0.5H110.214C120.313 0.5 128.5 8.68679 128.5 18.7857V110.214C128.5 120.313 120.313 128.5 110.214 128.5H18.7857C8.68679 128.5 0.5 120.313 0.5 110.214V18.7857Z" fill="#00D292"/>
<path d="M105.656 46.2048L66.7986 23.9414L66.7852 23.9325C66.0904 23.5315 65.3017 23.3209 64.4995 23.3209C63.6972 23.321 62.9086 23.5313 62.2138 23.9325L62.2004 23.9414L23.3432 46.2048L23.3254 46.2137L23.3432 46.2271L62.2004 68.4861L62.2138 68.495C62.9086 68.8961 63.6972 69.1065 64.4995 69.1066C65.3019 69.1066 66.0903 68.8961 66.7852 68.495L66.7986 68.4861L105.656 46.2271L105.674 46.2137L105.656 46.2048ZM114.816 46.2137C114.816 47.8306 114.389 49.4193 113.575 50.8164C112.764 52.2086 111.596 53.3586 110.196 54.1557L110.2 54.1602L71.3522 76.4102L71.3566 76.4146C69.272 77.618 66.9065 78.2494 64.4995 78.2494C62.0924 78.2494 59.727 77.6182 57.6424 76.4146L18.7986 54.1602C17.4004 53.3631 16.234 52.2072 15.4236 50.8164C14.61 49.4194 14.1825 47.8304 14.1825 46.2137C14.1826 44.5969 14.6097 43.0081 15.4236 41.611C16.2379 40.2137 17.4094 39.0558 18.8165 38.2584L57.6557 16.0084C59.7378 14.8088 62.0965 14.1781 64.4995 14.178C66.9011 14.178 69.2576 14.8147 71.3388 16.0128L71.3432 16.0084L110.178 38.2584C111.585 39.0558 112.761 40.2137 113.575 41.611C114.389 43.0082 114.816 44.5968 114.816 46.2137Z" fill="#CFFFF1"/>
<path d="M97.0888 72.7002C98.3284 70.5016 101.117 69.7247 103.316 70.9636L110.174 74.8252L110.183 74.8297C111.59 75.6271 112.761 76.785 113.575 78.1823C114.389 79.5795 114.816 81.1681 114.816 82.785C114.816 84.4018 114.389 85.9906 113.575 87.3877C112.764 88.7799 111.596 89.9299 110.196 90.727L110.2 90.7315L71.3522 112.981L71.3566 112.986C69.272 114.189 66.9065 114.821 64.4995 114.821C62.0924 114.821 59.727 114.189 57.6424 112.986L18.7986 90.7315C17.4004 89.9344 16.234 88.7785 15.4236 87.3877C14.61 85.9907 14.1825 84.4016 14.1825 82.785C14.1827 81.1682 14.6097 79.5793 15.4236 78.1823C16.2379 76.785 17.4094 75.6271 18.8165 74.8297L18.8299 74.8252L25.687 70.9636C27.8859 69.7258 30.6707 70.5024 31.9102 72.7002C33.1491 74.8995 32.3723 77.6883 30.1736 78.9279L23.3254 82.785L23.3432 82.7984L62.2004 105.057L62.2138 105.066C62.9086 105.467 63.6972 105.678 64.4995 105.678C65.3019 105.678 66.0903 105.467 66.7852 105.066L66.7986 105.057L105.656 82.7984L105.674 82.785L98.8299 78.9279C96.6301 77.6887 95.8496 74.8999 97.0888 72.7002Z" fill="#CFFFF1"/>
</g>
<defs>
<filter id="filter0_d_2003_13" x="0" y="0" width="130" height="130" filterUnits="userSpaceOnUse" color-interpolation-filters="sRGB">
<feFlood flood-opacity="0" result="BackgroundImageFix"/>
<feColorMatrix in="SourceAlpha" type="matrix" values="0 0 0 0 0 0 0 0 0 0 0 0 0 0 0 0 0 0 127 0" result="hardAlpha"/>
<feOffset dx="0.5" dy="0.5"/>
<feGaussianBlur stdDeviation="0.5"/>
<feComposite in2="hardAlpha" operator="out"/>
<feColorMatrix type="matrix" values="0 0 0 0 0 0 0 0 0 0 0 0 0 0 0 0 0 0 0.2 0"/>
<feBlend mode="normal" in2="BackgroundImageFix" result="effect1_dropShadow_2003_13"/>
<feBlend mode="normal" in="SourceGraphic" in2="effect1_dropShadow_2003_13" result="shape"/>
</filter>
</defs>
</svg>
