<svg width="128" height="128" viewBox="0 0 128 128" fill="none" xmlns="http://www.w3.org/2000/svg">
<rect width="128" height="128" rx="64" fill="#00D292"/>
<g filter="url(#filter0_d_2003_7)">
<path d="M100.012 47.9922L66.0117 28.5117L66 28.5039C65.3921 28.1531 64.7019 27.9687 64 27.9687C63.298 27.9688 62.608 28.1529 62 28.5039L61.9883 28.5117L27.9883 47.9922L27.9727 48L27.9883 48.0117L61.9883 67.4883L62 67.4961C62.608 67.8471 63.298 68.0312 64 68.0312C64.7021 68.0312 65.392 67.8471 66 67.4961L66.0117 67.4883L100.012 48.0117L100.027 48L100.012 47.9922ZM108.027 48C108.027 49.4147 107.653 50.8049 106.941 52.0273C106.232 53.2455 105.209 54.2517 103.984 54.9492L103.988 54.9531L69.9961 74.4219L70 74.4258C68.176 75.4787 66.1061 76.0312 64 76.0312C61.8938 76.0312 59.8241 75.4789 58 74.4258V74.4219L24.0117 54.9531V54.9492C22.7883 54.2518 21.7677 53.2443 21.0586 52.0273C20.3467 50.805 19.9727 49.4146 19.9727 48C19.9728 46.5853 20.3465 45.195 21.0586 43.9727C21.7711 42.75 22.7962 41.7368 24.0273 41.0391L58.0117 21.5703V21.5742C59.8335 20.5246 61.8973 19.9688 64 19.9688C66.1014 19.9688 68.1633 20.5259 69.9844 21.5742L69.9883 21.5703L103.969 41.0391H103.973C105.204 41.7368 106.229 42.7499 106.941 43.9727C107.654 45.1951 108.027 46.5852 108.027 48Z" fill="#CFFFF1"/>
</g>
<g filter="url(#filter1_d_2003_7)">
<path d="M92.5156 71.1756C93.6003 69.2519 96.0405 68.5721 97.9648 69.6561L103.965 73.035L103.973 73.0389C105.204 73.7367 106.229 74.7498 106.941 75.9725C107.654 77.195 108.027 78.585 108.027 79.9999C108.027 81.4146 107.653 82.8048 106.941 84.0272C106.232 85.2454 105.209 86.2516 103.984 86.9491L103.988 86.953L69.9961 106.422L70 106.426C68.176 107.479 66.1061 108.031 64 108.031C61.8938 108.031 59.8241 107.479 58 106.426V106.422L24.0117 86.953V86.9491C22.7883 86.2517 21.7677 85.2441 21.0586 84.0272C20.3467 82.8049 19.9727 81.4144 19.9727 79.9999C19.9728 78.5852 20.3465 77.1949 21.0586 75.9725C21.7711 74.7498 22.7962 73.7367 24.0273 73.0389L24.0391 73.035L30.0391 69.6561C31.9631 68.5731 34.3998 69.2526 35.4844 71.1756C36.5684 73.1 35.8887 75.5403 33.9648 76.6249L27.9727 79.9999L27.9883 80.0116L61.9883 99.4881L62 99.496C62.608 99.847 63.298 100.031 64 100.031C64.7021 100.031 65.392 99.847 66 99.496L66.0117 99.4881L100.012 80.0116L100.027 79.9999V79.996L94.0391 76.6249C92.1143 75.5406 91.4314 73.1004 92.5156 71.1756Z" fill="#CFFFF1"/>
</g>
<defs>
<filter id="filter0_d_2003_7" x="19.4727" y="19.4688" width="90.0547" height="58.0625" filterUnits="userSpaceOnUse" color-interpolation-filters="sRGB">
<feFlood flood-opacity="0" result="BackgroundImageFix"/>
<feColorMatrix in="SourceAlpha" type="matrix" values="0 0 0 0 0 0 0 0 0 0 0 0 0 0 0 0 0 0 127 0" result="hardAlpha"/>
<feOffset dx="0.5" dy="0.5"/>
<feGaussianBlur stdDeviation="0.5"/>
<feComposite in2="hardAlpha" operator="out"/>
<feColorMatrix type="matrix" values="0 0 0 0 0 0 0 0 0 0 0 0 0 0 0 0 0 0 0.2 0"/>
<feBlend mode="normal" in2="BackgroundImageFix" result="effect1_dropShadow_2003_7"/>
<feBlend mode="normal" in="SourceGraphic" in2="effect1_dropShadow_2003_7" result="shape"/>
</filter>
<filter id="filter1_d_2003_7" x="19.4727" y="68.6402" width="90.0547" height="40.8909" filterUnits="userSpaceOnUse" color-interpolation-filters="sRGB">
<feFlood flood-opacity="0" result="BackgroundImageFix"/>
<feColorMatrix in="SourceAlpha" type="matrix" values="0 0 0 0 0 0 0 0 0 0 0 0 0 0 0 0 0 0 127 0" result="hardAlpha"/>
<feOffset dx="0.5" dy="0.5"/>
<feGaussianBlur stdDeviation="0.5"/>
<feComposite in2="hardAlpha" operator="out"/>
<feColorMatrix type="matrix" values="0 0 0 0 0 0 0 0 0 0 0 0 0 0 0 0 0 0 0.2 0"/>
<feBlend mode="normal" in2="BackgroundImageFix" result="effect1_dropShadow_2003_7"/>
<feBlend mode="normal" in="SourceGraphic" in2="effect1_dropShadow_2003_7" result="shape"/>
</filter>
</defs>
</svg>
